<?xml version="1.0" standalone="no"?>
<!DOCTYPE svg PUBLIC "-//W3C//DTD SVG 20010904//EN"
 "http://www.w3.org/TR/2001/REC-SVG-20010904/DTD/svg10.dtd">
<svg version="1.0" xmlns="http://www.w3.org/2000/svg"
 width="512.000000pt" height="512.000000pt" viewBox="0 0 512.000000 512.000000"
 preserveAspectRatio="xMidYMid meet">
<metadata>
Created by potrace 1.14, written by Peter Selinger 2001-2017
</metadata>
<g transform="translate(0.000000,512.000000) scale(0.100000,-0.100000)"
fill="#000000" stroke="none">
<path d="M2408 5115 c-2 -1 -43 -6 -92 -9 -49 -4 -92 -9 -95 -10 -3 -2 -28 -6
-56 -10 -73 -9 -98 -14 -215 -43 -1059 -261 -1831 -1156 -1937 -2243 -10 -96
-10 -369 0 -480 16 -188 72 -443 137 -620 18 -47 37 -98 43 -115 20 -57 146
-300 193 -375 257 -404 594 -715 1004 -924 268 -137 499 -211 825 -261 110
-17 323 -20 1540 -20 l1360 0 1 212 2 212 -557 0 c-306 0 -562 0 -570 0 -8 1
12 20 45 43 128 90 190 144 335 288 368 365 595 797 704 1340 3 14 8 43 11 65
3 22 8 51 10 65 19 128 24 422 11 565 -13 129 -16 155 -38 260 -70 342 -188
629 -377 914 -84 128 -75 116 -167 226 -265 316 -581 553 -950 712 -187 81
-437 155 -605 178 -25 3 -56 8 -70 10 -91 14 -155 18 -312 20 -98 1 -179 1
-180 0z m407 -438 c11 -3 43 -8 70 -11 178 -24 406 -94 592 -182 338 -161 682
-463 868 -763 197 -318 282 -550 332 -908 18 -132 9 -484 -17 -618 -5 -27 -12
-62 -14 -76 -9 -57 -58 -223 -90 -307 -175 -458 -494 -836 -921 -1091 -202
-120 -469 -220 -685 -256 -47 -8 -101 -17 -120 -21 -55 -10 -439 -13 -500 -4
-30 5 -73 11 -95 14 -132 19 -208 38 -370 92 -388 130 -753 397 -1011 739
-221 293 -365 651 -411 1020 -16 122 -6 565 12 595 2 4 7 29 11 56 3 27 8 52
10 55 2 3 5 19 8 35 13 72 71 246 121 360 252 585 777 1041 1390 1210 66 18
257 54 315 60 41 3 77 8 80 11 6 5 399 -4 425 -10z"/>
<path d="M2475 4473 c-258 -46 -440 -197 -522 -436 -31 -88 -38 -239 -18 -335
49 -225 234 -418 460 -480 148 -40 325 -19 470 56 103 54 208 163 262 272 52
107 71 193 68 307 -8 337 -276 609 -610 617 -49 2 -99 1 -110 -1z m171 -442
c83 -38 130 -119 122 -214 -14 -172 -231 -252 -355 -130 -48 47 -66 97 -60
169 11 148 159 236 293 175z"/>
<path d="M1285 3588 c-90 -10 -114 -15 -175 -40 -206 -82 -341 -247 -397 -483
-2 -11 -5 -60 -5 -110 0 -176 61 -325 187 -450 85 -86 175 -137 295 -169 61
-16 62 -16 171 -16 229 -1 466 154 561 368 81 179 74 391 -16 564 -117 225
-375 365 -621 336z m156 -447 c51 -25 94 -81 108 -140 40 -179 -154 -320 -313
-227 -99 58 -132 170 -80 274 54 109 175 148 285 93z"/>
<path d="M3702 3588 c-198 -22 -392 -152 -484 -325 -29 -53 -58 -131 -64 -171
-3 -21 -8 -40 -10 -43 -6 -10 -6 -143 1 -184 39 -249 213 -452 448 -520 77
-22 109 -27 192 -26 102 1 169 17 270 66 170 82 292 231 340 414 17 67 23 201
11 261 -36 177 -108 295 -254 412 -31 25 -129 74 -186 93 -65 21 -186 32 -264
23z m166 -442 c120 -64 154 -205 77 -316 -95 -136 -315 -101 -368 59 -39 118
35 246 158 274 32 7 104 -2 133 -17z"/>
<path d="M2495 2761 c-83 -27 -137 -95 -143 -182 -5 -71 10 -117 51 -161 43
-46 95 -68 157 -68 62 0 107 19 152 65 101 104 64 283 -71 341 -34 14 -110 17
-146 5z"/>
<path d="M1720 2154 c-96 -15 -141 -29 -209 -65 -168 -90 -287 -245 -328 -429
-16 -71 -8 -251 15 -322 113 -357 493 -540 843 -407 246 94 402 328 402 599 0
118 -27 221 -83 317 -39 68 -129 164 -193 206 -56 36 -164 83 -212 92 -90 17
-166 19 -235 9z m174 -435 c45 -18 102 -84 116 -134 30 -107 -19 -211 -121
-255 -162 -69 -330 79 -286 252 13 53 78 123 130 141 47 16 114 15 161 -4z"/>
<path d="M3231 2157 c-308 -39 -545 -297 -555 -604 -16 -464 432 -786 867
-623 170 64 312 213 378 396 29 79 36 263 13 349 -84 319 -382 524 -703 482z
m186 -450 c52 -33 71 -57 92 -113 33 -90 6 -180 -70 -236 -50 -36 -78 -45
-135 -43 -130 4 -220 116 -200 250 15 98 119 178 221 170 34 -2 68 -13 92 -28z"/>
</g>
</svg>
